<svg width="162" height="109" viewBox="0 0 162 109" fill="none" xmlns="http://www.w3.org/2000/svg">
<path d="M133.611 59.7388L133.786 59.83C139.662 63.4533 144.959 67.9409 149.498 73.1419C150.152 73.9017 150.76 74.6615 151.345 75.4213L154.62 67.2457C154.899 66.5406 155.137 65.8201 155.334 65.0878L124.941 55.4611L133.611 59.7388Z" fill="white"/>
<path d="M26.7591 30.5393C26.0598 34.7276 26.8076 39.0292 28.8791 42.7359C30.9507 46.4426 34.2226 49.3335 38.1563 50.9326L56.688 58.3635C61.2717 60.1868 66.3907 60.1219 70.9266 58.1828C75.4624 56.2437 79.0465 52.5882 80.8956 48.0149L83.175 42.2784L48.2238 31.2155C47.2284 30.9876 37.0621 28.8449 26.7591 30.5393Z" fill="white"/>
<path d="M154.429 53.0147C153.479 50.7636 152.092 48.7233 150.348 47.0121C148.605 45.3009 146.539 43.9528 144.27 43.046L125.731 35.615C123.538 34.7304 121.196 34.2763 118.831 34.2777C115.683 34.2801 112.586 35.079 109.83 36.6001C107.073 38.1213 104.746 40.3151 103.065 42.9775L155.933 59.6934C155.849 57.3933 155.338 55.1288 154.429 53.0147Z" fill="white"/>
<path d="M85.7266 33.951C86.0933 29.958 85.1625 25.9532 83.0724 22.5312C80.9822 19.1093 77.8442 16.4526 74.1243 14.9557L55.5849 7.49436C53.3898 6.60971 51.0449 6.15571 48.6782 6.15711C43.7463 6.16633 39.0172 8.12133 35.5184 11.5974L84.4577 35.6149C84.7644 34.9805 85.196 34.4146 85.7266 33.951Z" fill="white"/>
<path d="M31.3843 17.8579L28.5654 24.8938L28.9833 24.8406C35.8598 24.2201 42.7904 24.635 49.5438 26.0715L49.7337 26.1247L58.9882 29.0499L32.2961 15.9508C31.9557 16.5684 31.6513 17.2052 31.3843 17.8579Z" fill="white"/>
<path d="M108.316 79.0532L126.848 86.4842C130.6 87.9757 134.735 88.211 138.632 87.1548C142.529 86.0987 145.979 83.808 148.465 80.626C142.181 71.2727 132.144 65.0499 131.171 64.4649L100.202 49.2687L97.9678 54.8457C96.1361 59.4286 96.197 64.5509 98.137 69.0891C100.077 73.6272 103.738 77.2106 108.316 79.0532Z" fill="white"/>
<path d="M83.2118 42.2785L80.9324 48.0151C79.0833 52.5884 75.4993 56.2439 70.9634 58.1829C66.4275 60.122 61.3085 60.187 56.7249 58.3637L38.1931 50.9328C34.2594 49.3336 30.9875 46.4427 28.9159 42.736C26.8444 39.0293 26.0967 34.7277 26.7959 30.5394C24.9245 30.8397 23.0782 31.279 21.2721 31.8539C20.8984 36.9182 22.142 41.9705 24.8238 46.2828C27.5057 50.595 31.4872 53.9445 36.1948 55.8487L54.7266 63.2797C60.6238 65.6344 67.214 65.5555 73.0532 63.0604C78.8924 60.5652 83.5044 55.8571 85.8788 49.9678L88.3026 43.8893L87.5428 43.5777L83.2118 42.2785Z" fill="#808080"/>
<path d="M32.2748 10.0017L35.5267 11.5973C39.0256 8.12132 43.7547 6.16632 48.6867 6.1571C51.0533 6.1557 53.3982 6.6097 55.5933 7.49435L74.1251 14.9253C77.845 16.4222 80.983 19.0788 83.0732 22.5008C85.1633 25.9227 86.0941 29.9276 85.7274 33.9206C86.4513 33.2802 87.336 32.8491 88.2865 32.6737C89.237 32.4984 90.2173 32.5853 91.1221 32.9252C91.2645 28.0244 89.9007 23.1978 87.2147 19.0962C84.5288 14.9945 80.6497 11.8151 76.1006 9.98655L57.5612 2.55558C52.7351 0.629194 47.4139 0.322626 42.3985 1.68199C37.3831 3.04136 32.945 5.9931 29.7522 10.0929C30.1322 9.86993 30.5617 9.74487 31.002 9.72896C31.4423 9.71304 31.8797 9.80678 32.2748 10.0017Z" fill="#808080"/>
<path d="M31.3853 17.8582C31.6522 17.2055 31.9566 16.5687 32.297 15.9511L29.934 14.819C29.409 14.5606 28.9843 14.1358 28.7259 13.6108C28.4676 13.0858 28.3901 12.4901 28.5056 11.9165C27.6951 13.1784 27.0057 14.514 26.4465 15.9055L22.9134 24.7497C22.7538 25.1448 22.6094 25.5095 22.4727 25.9426C24.4862 25.4554 26.5293 25.1001 28.5891 24.8789L31.3853 17.8582Z" fill="#808080"/>
<path d="M141.087 86.3018C138.843 87.2708 136.43 87.7858 133.986 87.8171C131.542 87.8484 129.116 87.3954 126.848 86.4841L108.316 79.0532C103.738 77.2106 100.077 73.6272 98.1369 69.0891C96.1968 64.5509 96.136 59.4286 97.9676 54.8456L100.201 49.2686L95.4146 46.9132L93.0289 52.8701C90.6762 58.7675 90.7561 65.3569 93.251 71.1955C95.7459 77.0341 100.453 81.6463 106.341 84.0224L124.872 91.4533C127.689 92.5868 130.696 93.1697 133.732 93.1705C137.007 93.1526 140.245 92.4699 143.249 91.1639C146.253 89.8578 148.96 87.9556 151.207 85.5724C150.423 83.8515 149.495 82.1994 148.434 80.6336C146.504 83.1139 143.976 85.0641 141.087 86.3018Z" fill="#808080"/>
<path d="M146.246 38.107L127.714 30.676C123.128 28.8465 118.09 28.4763 113.286 29.6158C108.481 30.7553 104.146 33.349 100.87 37.0432C101.763 37.6961 102.431 38.6112 102.779 39.6612C103.128 40.7113 103.141 41.8439 102.815 42.9014L103.066 42.9773C104.747 40.3149 107.074 38.1211 109.83 36.5999C112.587 35.0788 115.684 34.2799 118.832 34.2775C121.196 34.2761 123.539 34.7302 125.731 35.6148L144.27 43.0457C147.611 44.4049 150.489 46.6993 152.558 49.6536C154.627 52.608 155.799 56.0966 155.934 59.7008L157.362 60.1566C157.96 60.3498 158.471 60.7487 158.803 61.2825C159.135 61.8163 159.268 62.4506 159.176 63.0727C159.085 63.6948 158.777 64.2645 158.306 64.6807C157.834 65.0969 157.231 65.3327 156.602 65.3462C156.329 65.3467 156.058 65.3058 155.797 65.2246L155.371 65.0878C155.174 65.8201 154.936 66.5406 154.657 67.2457L151.322 75.4212C152.594 77.082 153.747 78.8315 154.771 80.6563C155.22 79.8317 155.621 78.9818 155.972 78.111L159.535 69.2288C161.89 63.3387 161.814 56.7552 159.323 50.9214C156.831 45.0876 152.129 40.4794 146.246 38.107Z" fill="#808080"/>
<path d="M89.2689 37.9324L89.2537 37.9627L92.9388 39.7711L96.9734 41.0552L89.2689 37.9324Z" fill="#999999"/>
<path d="M87.4902 43.631L88.2729 43.9425L94.207 46.3207L90.955 44.7251L87.4902 43.631Z" fill="#808080"/>
<path d="M85.7279 33.9509C85.1972 34.4145 84.7657 34.9805 84.459 35.6149L89.2534 37.9703V37.9323L96.9579 41.0552L102.801 42.9015C103.126 41.844 103.114 40.7114 102.765 39.6614C102.416 38.6113 101.749 37.6962 100.856 37.0433C100.492 36.7758 100.096 36.5539 99.678 36.3823L91.2289 32.9935H91.1073C90.2079 32.6516 89.2326 32.5601 88.2853 32.7286C87.3379 32.8972 86.4541 33.3197 85.7279 33.9509Z" fill="#808080"/>
<path d="M149.499 73.142C144.96 67.941 139.663 63.4534 133.786 59.8301L133.612 59.739L124.904 55.4612L90.9559 44.7251L94.2155 46.3283L95.416 46.9134L100.203 49.2688L131.173 64.465C132.145 65.05 142.182 71.3033 148.466 80.6261C149.527 82.192 150.454 83.844 151.239 85.5649C153.861 91.3622 154.628 98.003 151.239 105.062C151.089 105.377 151.002 105.719 150.984 106.067C150.966 106.416 151.017 106.765 151.134 107.094C151.251 107.423 151.432 107.726 151.667 107.984C151.901 108.243 152.185 108.453 152.501 108.602C152.855 108.776 153.245 108.864 153.64 108.861C154.143 108.861 154.636 108.719 155.061 108.45C155.487 108.181 155.826 107.796 156.041 107.341C160.182 98.6488 159.719 89.5539 154.772 80.6489C153.748 78.8241 152.596 77.0746 151.323 75.4138C150.761 74.6616 150.153 73.9018 149.499 73.142Z" fill="#808080"/>
<path d="M29.9339 14.8188L32.2969 15.9738L58.989 29.0729L92.9373 39.8166L89.2522 38.0082L84.4578 35.6528L35.526 11.6352L32.2741 10.0396C31.8809 9.84731 31.4464 9.75502 31.009 9.77092C30.5716 9.78683 30.1449 9.91043 29.7667 10.1308C29.3115 10.3909 28.9459 10.783 28.7182 11.2553C28.6155 11.4642 28.5438 11.6868 28.5054 11.9164C28.3899 12.49 28.4674 13.0857 28.7258 13.6107C28.9842 14.1356 29.4089 14.5604 29.9339 14.8188Z" fill="#808080"/>
<path d="M48.2308 31.2156L83.182 42.2785L87.4674 43.6309L90.9245 44.725L124.873 55.4612L155.265 65.0879L155.691 65.2248C155.951 65.3059 156.223 65.3469 156.496 65.3463C157.125 65.3328 157.728 65.0971 158.199 64.6809C158.671 64.2647 158.979 63.695 159.07 63.0729C159.161 62.4507 159.029 61.8165 158.697 61.2826C158.365 60.7488 157.854 60.3499 157.256 60.1568L155.827 59.7009L102.96 42.9851L102.709 42.9091L96.8662 41.0628L92.8316 39.7863L58.8833 29.0426L49.6288 26.1173L49.4388 26.0641C42.7229 24.6365 35.8315 24.2191 28.9924 24.8256L28.5745 24.8788C26.5147 25.1 24.4716 25.4554 22.458 25.9426C11.38 28.6323 3.88064 35.1287 0.62105 45.029C0.419591 45.694 0.486453 46.4115 0.807293 47.0278C1.12813 47.6442 1.67746 48.1105 2.33776 48.327C2.99807 48.5435 3.71691 48.4929 4.34038 48.1861C4.96386 47.8793 5.44246 47.3406 5.67381 46.6854C8.40152 38.3958 14.4952 34.0345 21.2423 31.8539C23.0483 31.279 24.8947 30.8396 26.7661 30.5394C37.0616 28.845 47.2278 30.9877 48.2308 31.2156Z" fill="#808080"/>
</svg>
